<svg width="1440" height="304" viewBox="0 0 1440 304" fill="none" xmlns="http://www.w3.org/2000/svg">
<path d="M1440 0H0V304H1440V0Z" fill="#FFA24B"/>
<path d="M188.21 135.98H184.25V149.9H188.21V135.98ZM182.24 146.48C177.77 145.16 175.79 141.95 175.79 138.68V136.61H171.77V138.68C171.77 142.04 169.76 145.52 165.17 146.93L167.09 150.02C170.33 149.03 172.58 146.93 173.84 144.32C175.07 146.72 177.2 148.64 180.35 149.57L182.24 146.48ZM173.78 160.31V158.6H188.24V151.13H169.82V154.16H184.31V155.78H169.85V163.37H188.93V160.31H173.78ZM203.598 138.08H199.638V142.1C199.638 147.47 197.358 152.81 192.528 154.88L194.898 158.15C198.198 156.59 200.448 153.62 201.678 149.93C202.908 153.32 205.038 156.05 208.218 157.49L210.468 154.28C205.788 152.27 203.598 147.23 203.598 142.1V138.08ZM211.818 135.92V163.64H215.778V135.92H211.818ZM221.475 138.02V141.17H230.475C229.845 145.04 226.425 148.25 220.275 149.93L221.925 153.08C230.145 150.71 234.765 145.52 234.765 138.02H221.475ZM228.345 153.74H224.385V163.1H243.165V159.95H228.345V153.74ZM242.205 143.66V135.95H238.245V155.72H242.205V146.9H245.895V143.66H242.205ZM260.563 137.33C254.773 137.33 250.273 140.51 250.273 145.34C250.273 150.14 254.773 153.32 260.563 153.32C266.383 153.32 270.883 150.14 270.883 145.34C270.883 140.51 266.383 137.33 260.563 137.33ZM260.563 140.57C264.343 140.57 267.013 142.34 267.013 145.34C267.013 148.28 264.343 150.08 260.563 150.08C256.813 150.08 254.143 148.28 254.143 145.34C254.143 142.34 256.813 140.57 260.563 140.57ZM248.083 157.04V160.28H273.103V157.04H248.083ZM290.141 157.31V153.2H298.511V150.02H282.491V146.93H297.881V137.72H278.531V140.87H293.981V143.84H278.561V153.2H286.181V157.31H275.681V160.55H300.701V157.31H290.141ZM333.991 135.95H330.031V150.11H333.991V135.95ZM328.291 146.81C324.151 145.7 322.141 143.03 321.841 140.36H327.271V137.21H312.241V140.36H317.761C317.491 143.27 315.451 146.15 311.191 147.35L313.021 150.44C316.351 149.51 318.631 147.44 319.891 144.83C321.151 147.17 323.311 149 326.491 149.84L328.291 146.81ZM319.561 160.37V158.63H334.021V151.22H315.601V154.19H330.091V155.84H315.631V163.37H334.711V160.37H319.561ZM356.579 144.29H345.629V140.21H356.579V144.29ZM360.479 137.12H341.729V147.41H360.479V137.12ZM345.509 155.09H341.549V163.1H360.899V159.95H345.509V155.09ZM338.639 149.6V152.72H349.529V157.43H353.489V152.72H363.659V149.6H338.639ZM374.247 154.7C372.387 154.7 371.007 153.44 371.007 151.34C371.007 149.24 372.387 147.95 374.247 147.95C376.107 147.95 377.457 149.24 377.457 151.31C377.457 153.44 376.107 154.7 374.247 154.7ZM374.247 144.74C370.227 144.74 367.227 147.47 367.227 151.31C367.227 155.21 370.227 157.94 374.247 157.94C378.237 157.94 381.207 155.21 381.207 151.31C381.207 147.47 378.237 144.74 374.247 144.74ZM376.197 136.43H372.237V140.03H366.117V143.18H382.197V140.03H376.197V136.43ZM391.917 146.75H387.957V135.95H383.997V163.58H387.957V150.02H391.917V146.75ZM416.124 143.42H400.914V136.94H396.954V146.57H416.124V143.42ZM400.674 154.76H396.684V162.98H416.274V159.83H400.674V154.76ZM393.864 149.39V152.57H418.884V149.39H393.864ZM431.235 145.46L431.745 148.79L447.585 147.95C447.435 149.6 447.135 151.43 446.655 153.47L450.555 153.95C451.845 147.89 451.815 144.02 451.815 140.69V138.26H432.075V141.41H447.915C447.915 142.49 447.915 143.66 447.825 144.92L431.235 145.46ZM442.065 157.19V150.59H438.105V157.19H429.255V160.4H454.245V157.19H442.065ZM479.203 148.7H463.723V141.44H478.993V138.23H459.763V151.85H479.203V148.7ZM456.853 157.04V160.28H481.873V157.04H456.853ZM493.863 137.54V140.69H502.263C501.633 144.35 498.303 147.35 492.363 148.97L493.923 152.03C501.963 149.81 506.463 144.83 506.463 137.54H493.863ZM501.063 155.63H511.443V160.16H501.063V155.63ZM497.163 163.25H515.343V152.51H497.163V163.25ZM511.383 135.98V142.49H506.613V145.7H511.383V151.37H515.343V135.98H511.383ZM533.761 148.31C530.101 146.78 528.631 143.75 528.631 140.69V137.48H524.821V140.69C524.821 143.84 523.321 147.26 519.451 148.97L521.551 152.06C524.101 150.95 525.781 149 526.801 146.66C527.761 148.7 529.351 150.35 531.661 151.31L533.761 148.31ZM524.371 157.07H539.431V163.61H543.391V153.95H524.371V157.07ZM539.641 135.95V142.67H537.481V136.37H533.791V152.57H537.481V145.85H539.641V152.72H543.391V135.95H539.641ZM175.79 184.06C174.93 184.06 174.16 184.23 173.48 184.57C172.82 184.91 172.26 185.4 171.8 186.04C171.34 186.66 170.99 187.42 170.75 188.32C170.53 189.22 170.42 190.23 170.42 191.35C170.42 192.87 170.6 194.17 170.96 195.25C171.34 196.31 171.93 197.12 172.73 197.68C173.53 198.24 174.55 198.52 175.79 198.52C176.67 198.52 177.54 198.42 178.4 198.22C179.28 198.02 180.23 197.74 181.25 197.38V201.19C180.31 201.57 179.38 201.85 178.46 202.03C177.54 202.21 176.51 202.3 175.37 202.3C173.17 202.3 171.35 201.85 169.91 200.95C168.49 200.03 167.44 198.75 166.76 197.11C166.08 195.45 165.74 193.52 165.74 191.32C165.74 189.7 165.96 188.22 166.4 186.88C166.84 185.52 167.48 184.35 168.32 183.37C169.18 182.39 170.23 181.63 171.47 181.09C172.73 180.55 174.17 180.28 175.79 180.28C176.85 180.28 177.91 180.42 178.97 180.7C180.05 180.96 181.08 181.32 182.06 181.78L180.59 185.47C179.79 185.09 178.98 184.76 178.16 184.48C177.36 184.2 176.57 184.06 175.79 184.06ZM204.656 191.26C204.656 192.92 204.446 194.43 204.026 195.79C203.626 197.13 203.006 198.29 202.166 199.27C201.346 200.25 200.286 201 198.986 201.52C197.706 202.04 196.196 202.3 194.456 202.3C192.716 202.3 191.196 202.04 189.896 201.52C188.616 200.98 187.556 200.23 186.716 199.27C185.896 198.29 185.276 197.12 184.856 195.76C184.456 194.4 184.256 192.89 184.256 191.23C184.256 189.01 184.616 187.08 185.336 185.44C186.076 183.8 187.196 182.53 188.696 181.63C190.216 180.71 192.146 180.25 194.486 180.25C196.806 180.25 198.716 180.71 200.216 181.63C201.716 182.53 202.826 183.81 203.546 185.47C204.286 187.11 204.656 189.04 204.656 191.26ZM189.026 191.26C189.026 192.76 189.216 194.05 189.596 195.13C189.976 196.21 190.566 197.04 191.366 197.62C192.166 198.2 193.196 198.49 194.456 198.49C195.756 198.49 196.796 198.2 197.576 197.62C198.376 197.04 198.956 196.21 199.316 195.13C199.696 194.05 199.886 192.76 199.886 191.26C199.886 189 199.466 187.23 198.626 185.95C197.786 184.67 196.406 184.03 194.486 184.03C193.206 184.03 192.166 184.32 191.366 184.9C190.566 185.48 189.976 186.31 189.596 187.39C189.216 188.47 189.026 189.76 189.026 191.26ZM226.853 191.08C226.853 193.48 226.393 195.49 225.473 197.11C224.553 198.73 223.213 199.95 221.453 200.77C219.713 201.59 217.613 202 215.153 202H209.093V180.58H215.813C218.053 180.58 219.993 180.98 221.633 181.78C223.293 182.58 224.573 183.76 225.473 185.32C226.393 186.86 226.853 188.78 226.853 191.08ZM222.143 191.2C222.143 189.62 221.913 188.32 221.453 187.3C220.993 186.28 220.303 185.53 219.383 185.05C218.483 184.55 217.373 184.3 216.053 184.3H213.623V198.25H215.573C217.793 198.25 219.443 197.66 220.523 196.48C221.603 195.3 222.143 193.54 222.143 191.2ZM243.63 202H231.3V180.58H243.63V184.3H235.83V189.01H243.09V192.73H235.83V198.25H243.63V202ZM268.51 196.06C268.51 197.32 268.2 198.42 267.58 199.36C266.96 200.3 266.06 201.03 264.88 201.55C263.72 202.05 262.3 202.3 260.62 202.3C259.88 202.3 259.15 202.25 258.43 202.15C257.73 202.05 257.05 201.91 256.39 201.73C255.75 201.53 255.14 201.29 254.56 201.01V196.78C255.58 197.22 256.63 197.63 257.71 198.01C258.81 198.37 259.9 198.55 260.98 198.55C261.72 198.55 262.31 198.45 262.75 198.25C263.21 198.05 263.54 197.78 263.74 197.44C263.96 197.1 264.07 196.71 264.07 196.27C264.07 195.73 263.88 195.27 263.5 194.89C263.14 194.51 262.65 194.16 262.03 193.84C261.41 193.5 260.7 193.14 259.9 192.76C259.4 192.52 258.86 192.24 258.28 191.92C257.7 191.58 257.14 191.17 256.6 190.69C256.08 190.19 255.65 189.59 255.31 188.89C254.97 188.19 254.8 187.35 254.8 186.37C254.8 185.09 255.09 184 255.67 183.1C256.27 182.18 257.11 181.48 258.19 181C259.29 180.52 260.58 180.28 262.06 180.28C263.18 180.28 264.24 180.41 265.24 180.67C266.26 180.93 267.32 181.3 268.42 181.78L266.95 185.32C265.97 184.92 265.09 184.61 264.31 184.39C263.53 184.17 262.73 184.06 261.91 184.06C261.35 184.06 260.87 184.15 260.47 184.33C260.07 184.51 259.76 184.76 259.54 185.08C259.34 185.4 259.24 185.78 259.24 186.22C259.24 186.72 259.39 187.15 259.69 187.51C259.99 187.85 260.44 188.18 261.04 188.5C261.64 188.82 262.39 189.2 263.29 189.64C264.39 190.16 265.32 190.7 266.08 191.26C266.86 191.82 267.46 192.48 267.88 193.24C268.3 194 268.51 194.94 268.51 196.06ZM284.733 202H272.403V180.58H284.733V184.3H276.933V189.01H284.193V192.73H276.933V198.25H284.733V202ZM302.3 202L300.74 196.9H292.94L291.38 202H286.49L294.05 180.49H299.6L307.19 202H302.3ZM298.1 188.11C298 187.77 297.87 187.34 297.71 186.82C297.55 186.3 297.39 185.77 297.23 185.23C297.07 184.69 296.94 184.22 296.84 183.82C296.74 184.22 296.6 184.72 296.42 185.32C296.26 185.9 296.1 186.46 295.94 187C295.8 187.52 295.69 187.89 295.61 188.11L294.08 193.09H299.66L298.1 188.11ZM316.143 180.58C318.083 180.58 319.683 180.82 320.943 181.3C322.203 181.76 323.143 182.47 323.763 183.43C324.383 184.37 324.693 185.56 324.693 187C324.693 187.98 324.503 188.84 324.123 189.58C323.763 190.3 323.273 190.92 322.653 191.44C322.053 191.94 321.403 192.35 320.703 192.67L327.003 202H321.963L316.863 193.78H314.433V202H309.903V180.58H316.143ZM315.813 184.3H314.433V190.09H315.903C316.903 190.09 317.713 189.98 318.333 189.76C318.953 189.54 319.403 189.21 319.683 188.77C319.963 188.31 320.103 187.76 320.103 187.12C320.103 186.44 319.943 185.9 319.623 185.5C319.323 185.08 318.853 184.78 318.213 184.6C317.593 184.4 316.793 184.3 315.813 184.3ZM338.798 184.06C337.938 184.06 337.168 184.23 336.488 184.57C335.828 184.91 335.268 185.4 334.808 186.04C334.348 186.66 333.998 187.42 333.758 188.32C333.538 189.22 333.428 190.23 333.428 191.35C333.428 192.87 333.608 194.17 333.968 195.25C334.348 196.31 334.938 197.12 335.738 197.68C336.538 198.24 337.558 198.52 338.798 198.52C339.678 198.52 340.548 198.42 341.408 198.22C342.288 198.02 343.238 197.74 344.258 197.38V201.19C343.318 201.57 342.388 201.85 341.468 202.03C340.548 202.21 339.518 202.3 338.378 202.3C336.178 202.3 334.358 201.85 332.918 200.95C331.498 200.03 330.448 198.75 329.768 197.11C329.088 195.45 328.748 193.52 328.748 191.32C328.748 189.7 328.968 188.22 329.408 186.88C329.848 185.52 330.488 184.35 331.328 183.37C332.188 182.39 333.238 181.63 334.478 181.09C335.738 180.55 337.178 180.28 338.798 180.28C339.858 180.28 340.918 180.42 341.978 180.7C343.058 180.96 344.088 181.32 345.068 181.78L343.598 185.47C342.798 185.09 341.988 184.76 341.168 184.48C340.368 184.2 339.578 184.06 338.798 184.06ZM366.359 202H361.829V192.76H353.339V202H348.809V180.58H353.339V188.98H361.829V180.58H366.359V202ZM375.769 198.85C375.589 199.55 375.359 200.31 375.079 201.13C374.799 201.93 374.499 202.73 374.179 203.53C373.859 204.35 373.529 205.13 373.189 205.87H369.979C370.179 205.07 370.369 204.23 370.549 203.35C370.729 202.49 370.899 201.64 371.059 200.8C371.219 199.96 371.349 199.2 371.449 198.52H375.559L375.769 198.85ZM397.186 184.06C396.326 184.06 395.556 184.23 394.876 184.57C394.216 184.91 393.656 185.4 393.196 186.04C392.736 186.66 392.386 187.42 392.146 188.32C391.926 189.22 391.816 190.23 391.816 191.35C391.816 192.87 391.996 194.17 392.356 195.25C392.736 196.31 393.326 197.12 394.126 197.68C394.926 198.24 395.946 198.52 397.186 198.52C398.066 198.52 398.936 198.42 399.796 198.22C400.676 198.02 401.626 197.74 402.646 197.38V201.19C401.706 201.57 400.776 201.85 399.856 202.03C398.936 202.21 397.906 202.3 396.766 202.3C394.566 202.3 392.746 201.85 391.306 200.95C389.886 200.03 388.836 198.75 388.156 197.11C387.476 195.45 387.136 193.52 387.136 191.32C387.136 189.7 387.356 188.22 387.796 186.88C388.236 185.52 388.876 184.35 389.716 183.37C390.576 182.39 391.626 181.63 392.866 181.09C394.126 180.55 395.566 180.28 397.186 180.28C398.246 180.28 399.306 180.42 400.366 180.7C401.446 180.96 402.476 181.32 403.456 181.78L401.986 185.47C401.186 185.09 400.376 184.76 399.556 184.48C398.756 184.2 397.966 184.06 397.186 184.06ZM410.648 180.91C410.468 181.61 410.238 182.37 409.958 183.19C409.678 183.99 409.378 184.8 409.058 185.62C408.738 186.42 408.408 187.19 408.068 187.93H404.858C404.998 187.33 405.138 186.71 405.278 186.07C405.418 185.43 405.548 184.79 405.668 184.15C405.808 183.49 405.928 182.86 406.028 182.26C406.148 181.66 406.248 181.1 406.328 180.58H410.438L410.648 180.91ZM426.032 202H413.702V180.58H426.032V184.3H418.232V189.01H425.492V192.73H418.232V198.25H426.032V202ZM443.599 202L442.039 196.9H434.239L432.679 202H427.789L435.349 180.49H440.899L448.489 202H443.599ZM439.399 188.11C439.299 187.77 439.169 187.34 439.009 186.82C438.849 186.3 438.689 185.77 438.529 185.23C438.369 184.69 438.239 184.22 438.139 183.82C438.039 184.22 437.899 184.72 437.719 185.32C437.559 185.9 437.399 186.46 437.239 187C437.099 187.52 436.989 187.89 436.909 188.11L435.379 193.09H440.959L439.399 188.11ZM457.442 180.58C459.382 180.58 460.982 180.82 462.242 181.3C463.502 181.76 464.442 182.47 465.062 183.43C465.682 184.37 465.992 185.56 465.992 187C465.992 187.98 465.802 188.84 465.422 189.58C465.062 190.3 464.572 190.92 463.952 191.44C463.352 191.94 462.702 192.35 462.002 192.67L468.302 202H463.262L458.162 193.78H455.732V202H451.202V180.58H457.442ZM457.112 184.3H455.732V190.09H457.202C458.202 190.09 459.012 189.98 459.632 189.76C460.252 189.54 460.702 189.21 460.982 188.77C461.262 188.31 461.402 187.76 461.402 187.12C461.402 186.44 461.242 185.9 460.922 185.5C460.622 185.08 460.152 184.78 459.512 184.6C458.892 184.4 458.092 184.3 457.112 184.3ZM480.097 184.06C479.237 184.06 478.467 184.23 477.787 184.57C477.127 184.91 476.567 185.4 476.107 186.04C475.647 186.66 475.297 187.42 475.057 188.32C474.837 189.22 474.727 190.23 474.727 191.35C474.727 192.87 474.907 194.17 475.267 195.25C475.647 196.31 476.237 197.12 477.037 197.68C477.837 198.24 478.857 198.52 480.097 198.52C480.977 198.52 481.847 198.42 482.707 198.22C483.587 198.02 484.537 197.74 485.557 197.38V201.19C484.617 201.57 483.687 201.85 482.767 202.03C481.847 202.21 480.817 202.3 479.677 202.3C477.477 202.3 475.657 201.85 474.217 200.95C472.797 200.03 471.747 198.75 471.067 197.11C470.387 195.45 470.047 193.52 470.047 191.32C470.047 189.7 470.267 188.22 470.707 186.88C471.147 185.52 471.787 184.35 472.627 183.37C473.487 182.39 474.537 181.63 475.777 181.09C477.037 180.55 478.477 180.28 480.097 180.28C481.157 180.28 482.217 180.42 483.277 180.7C484.357 180.96 485.387 181.32 486.367 181.78L484.897 185.47C484.097 185.09 483.287 184.76 482.467 184.48C481.667 184.2 480.877 184.06 480.097 184.06ZM507.658 202H503.128V192.76H494.638V202H490.108V180.58H494.638V188.98H503.128V180.58H507.658V202Z" fill="white"/>
<path d="M143.988 138H67L73.9672 211.156L107.41 223L137.021 211.156L143.988 138Z" stroke="#F8F8F8" stroke-opacity="0.5" stroke-width="3.48361" stroke-linecap="round" stroke-linejoin="round"/>
<path d="M130.399 156.811H85.8086L87.202 174.925H125.87L122.735 198.962L107.755 205.233L90.6856 198.962L88.9438 189.905" stroke="#F8F8F8" stroke-opacity="0.5" stroke-width="3.48361" stroke-linecap="round" stroke-linejoin="round"/>
<path d="M469.717 73H382L389.938 156.351L428.042 169.846L461.779 156.351L469.717 73Z" stroke="#F8F8F8" stroke-opacity="0.3" stroke-width="3.9691" stroke-linecap="round" stroke-linejoin="round"/>
<path d="M406.222 132.14L408.206 142.46L423.686 146.826V94.0371H397.887" stroke="#F8F8F8" stroke-opacity="0.3" stroke-width="3.9691" stroke-linecap="round" stroke-linejoin="round"/>
<path d="M432.016 147.223L444.717 142.46L448.686 119.439H432.016V94.0371H453.052L451.067 102.372" stroke="#F8F8F8" stroke-opacity="0.3" stroke-width="3.9691" stroke-linecap="round" stroke-linejoin="round"/>
<path d="M1031 67H968L973.701 126.864L1001.07 136.557L1025.3 126.864L1031 67Z" stroke="#F8F8F8" stroke-opacity="0.5" stroke-width="2.85068" stroke-linecap="round" stroke-linejoin="round"/>
<path d="M985.386 109.474L986.811 116.886L1000.78 122.017L1013.04 116.886L1015.6 97.2161H984.245L1018.45 82.3926H981.68" stroke="#F8F8F8" stroke-opacity="0.5" stroke-width="2.85068" stroke-linecap="round" stroke-linejoin="round"/>
<path d="M796.486 156.398C779.052 173.041 818.019 237.24 839.166 232.451C857.354 219.056 819.873 151.517 796.486 156.398Z" stroke="#F8F8F8" stroke-opacity="0.5" stroke-width="3.71099" stroke-linecap="round" stroke-linejoin="round"/>
<path d="M840.271 156.909C817.141 150.133 781.026 215.978 795.747 231.898C816.442 240.952 856.192 174.723 840.271 156.909Z" stroke="#F8F8F8" stroke-opacity="0.5" stroke-width="3.71099" stroke-linecap="round" stroke-linejoin="round"/>
<path d="M861.836 194.939C856.14 171.52 781.058 173.166 774.632 193.875C777.138 216.323 854.369 217.633 861.836 194.939Z" stroke="#F8F8F8" stroke-opacity="0.5" stroke-width="3.71099" stroke-linecap="round" stroke-linejoin="round"/>
<path d="M818.016 202.729C822.525 202.729 826.18 199.074 826.18 194.565C826.18 190.056 822.525 186.4 818.016 186.4C813.507 186.4 809.852 190.056 809.852 194.565C809.852 199.074 813.507 202.729 818.016 202.729Z" fill="white" fill-opacity="0.5"/>
<path d="M645 55.6165L673.617 39L702.542 55.6165V88.5418L673.617 105.466L645 88.5418V55.6165Z" stroke="#F8F8F8" stroke-opacity="0.5" stroke-width="3.07713" stroke-linecap="round" stroke-linejoin="round"/>
<path d="M682.661 82.8376C683.331 83.6263 683.24 84.8197 682.376 85.3889C680.467 86.646 678.296 87.4666 676.016 87.7811C673.116 88.1814 670.161 87.7457 667.5 86.5253C664.838 85.3048 662.58 83.3503 660.991 80.8912C659.402 78.4321 658.547 75.5705 658.528 72.6426C658.508 69.7147 659.324 66.842 660.881 64.3619C662.437 61.8818 664.669 59.8973 667.314 58.6415C669.959 57.3856 672.907 56.9105 675.813 57.272C678.096 57.5561 680.278 58.3476 682.204 59.5791C683.075 60.1367 683.182 61.3289 682.523 62.1264C681.863 62.924 680.688 63.0207 679.795 62.4977C678.437 61.702 676.925 61.1869 675.35 60.9909C673.152 60.7174 670.922 61.0768 668.921 62.0268C666.92 62.9768 665.232 64.4779 664.055 66.3539C662.878 68.2299 662.26 70.4029 662.275 72.6176C662.29 74.8323 662.936 76.9969 664.139 78.857C665.341 80.7171 667.049 82.1956 669.062 83.1188C671.075 84.042 673.31 84.3715 675.504 84.0688C677.076 83.8518 678.581 83.3165 679.929 82.5028C680.814 81.9679 681.991 82.0489 682.661 82.8376Z" fill="white" fill-opacity="0.5"/>
<path d="M677.641 69.7559H686.564" stroke="#F8F8F8" stroke-opacity="0.5" stroke-width="3.07713" stroke-linecap="round" stroke-linejoin="round"/>
<path d="M684.715 67.918V76.8416" stroke="#F8F8F8" stroke-opacity="0.5" stroke-width="3.07713" stroke-linecap="round" stroke-linejoin="round"/>
<path d="M677.641 75H686.564" stroke="#F8F8F8" stroke-opacity="0.5" stroke-width="3.07713" stroke-linecap="round" stroke-linejoin="round"/>
<path d="M679.492 67.918V76.8416" stroke="#F8F8F8" stroke-opacity="0.5" stroke-width="3.07713" stroke-linecap="round" stroke-linejoin="round"/>
<path d="M1350.34 203.983H1333.86V228.536H1345.81M1340.97 203.983V194.938H1360.03V203.983H1340.97ZM1360.03 203.983V216.26H1345.81V228.536L1360.03 203.983ZM1360.03 203.983H1371.98V228.536H1355.18H1364.87V238.228H1345.81V228.536L1360.03 203.983Z" stroke="#F8F8F8" stroke-opacity="0.5" stroke-width="3.23065" stroke-linecap="round" stroke-linejoin="round"/>
<path d="M1345.82 199.139H1347.76" stroke="#F8F8F8" stroke-opacity="0.5" stroke-width="1.93839" stroke-linecap="round" stroke-linejoin="round"/>
<path d="M1358.41 234.031H1360.35" stroke="#F8F8F8" stroke-opacity="0.5" stroke-width="1.93839" stroke-linecap="round" stroke-linejoin="round"/>
<path d="M1319 172H1387.81V245.013H1319V186.538V172Z" stroke="#F8F8F8" stroke-opacity="0.5" stroke-width="3.23065" stroke-linecap="round" stroke-linejoin="round"/>
<path d="M1319 187.186H1387.81" stroke="#F8F8F8" stroke-opacity="0.5" stroke-width="3.23065" stroke-linecap="round" stroke-linejoin="round"/>
<path d="M586.326 243.542C598.595 243.542 608.541 233.595 608.541 221.326C608.541 209.057 598.595 199.111 586.326 199.111C574.057 199.111 564.111 209.057 564.111 221.326C564.111 233.595 574.057 243.542 586.326 243.542Z" stroke="#F8F8F8" stroke-opacity="0.5" stroke-width="2.22151"/>
<path d="M570.644 221.393C569.817 230.725 574.599 235.282 581.667 234.848C588.736 234.414 595.822 232.027 598.94 223.563C601.269 223.563 604.138 222.478 604.762 220.525C603.93 219.223 601.643 218.355 599.564 219.006C599.356 217.704 598.941 216.185 597.069 214.883C596.03 215.389 594.366 217.921 595.822 221.393H570.662" stroke="#F8F8F8" stroke-opacity="0.5" stroke-width="2.22151" stroke-linecap="round" stroke-linejoin="round"/>
<path d="M588.777 208.219H585.223V211.329H588.777V208.219Z" fill="white" fill-opacity="0.5"/>
<path d="M588.777 212.217H585.223V215.327H588.777V212.217Z" fill="white" fill-opacity="0.5"/>
<path d="M588.777 216.215H585.223V219.325H588.777V216.215Z" fill="white" fill-opacity="0.5"/>
<path d="M579.874 216.215H576.32V219.325H579.874V216.215Z" fill="white" fill-opacity="0.5"/>
<path d="M579.874 212.217H576.32V215.327H579.874V212.217Z" fill="white" fill-opacity="0.5"/>
<path d="M575.449 216.215H571.895V219.325H575.449V216.215Z" fill="white" fill-opacity="0.5"/>
<path d="M593.226 216.215H589.672V219.325H593.226V216.215Z" fill="white" fill-opacity="0.5"/>
<path d="M584.324 216.215H580.77V219.325H584.324V216.215Z" fill="white" fill-opacity="0.5"/>
<path d="M584.324 212.217H580.77V215.327H584.324V212.217Z" fill="white" fill-opacity="0.5"/>
<path d="M306.556 241.992H295.227V258.875H303.446M300.114 241.992V235.771H313.221V241.992H300.114ZM313.221 241.992V250.433H303.446V258.875L313.221 241.992ZM313.221 241.992H321.44V258.875H309.889H316.553V265.54H303.446V258.875L313.221 241.992Z" stroke="#F8F8F8" stroke-opacity="0.4" stroke-width="2.22151" stroke-linecap="round" stroke-linejoin="round"/>
<path d="M303.434 238.66H304.767" stroke="#F8F8F8" stroke-opacity="0.4" stroke-width="1.33291" stroke-linecap="round" stroke-linejoin="round"/>
<path d="M312.102 262.654H313.434" stroke="#F8F8F8" stroke-opacity="0.4" stroke-width="1.33291" stroke-linecap="round" stroke-linejoin="round"/>
<path d="M285 220H332.318V270.206H285V229.997V220Z" stroke="#F8F8F8" stroke-opacity="0.4" stroke-width="2.22151" stroke-linecap="round" stroke-linejoin="round"/>
<path d="M285 230.436H332.318" stroke="#F8F8F8" stroke-opacity="0.4" stroke-width="2.22151" stroke-linecap="round" stroke-linejoin="round"/>
<path d="M211 47.4385L235.866 33L261 47.4385V76.0481L235.866 90.754L211 76.0481V47.4385Z" stroke="#F8F8F8" stroke-opacity="0.4" stroke-width="2.6738" stroke-linecap="round" stroke-linejoin="round"/>
<path d="M243.72 70.8266C244.303 71.5119 244.224 72.549 243.473 73.0436C241.814 74.1359 239.927 74.8489 237.947 75.1222C235.426 75.47 232.859 75.0915 230.546 74.031C228.234 72.9705 226.272 71.2721 224.891 69.1353C223.51 66.9986 222.767 64.5121 222.75 61.968C222.733 59.4239 223.443 56.9277 224.795 54.7727C226.147 52.6177 228.086 50.8933 230.385 49.802C232.683 48.7107 235.245 48.2979 237.77 48.6121C239.754 48.8589 241.65 49.5467 243.323 50.6167C244.08 51.1013 244.173 52.1372 243.6 52.8302C243.027 53.5232 242.006 53.6073 241.23 53.1528C240.05 52.4614 238.736 52.0138 237.368 51.8435C235.458 51.6059 233.52 51.9181 231.781 52.7436C230.043 53.569 228.576 54.8734 227.553 56.5035C226.53 58.1336 225.994 60.0218 226.007 61.9462C226.019 63.8707 226.581 65.7515 227.626 67.3678C228.67 68.9841 230.154 70.2688 231.904 71.071C233.653 71.8732 235.595 72.1595 237.501 71.8965C238.868 71.7079 240.175 71.2428 241.346 70.5357C242.116 70.0709 243.138 70.1413 243.72 70.8266Z" fill="white" fill-opacity="0.5"/>
<path d="M1218.53 59.865H1252.93M1210.45 40L1196 59.865L1210.45 40ZM1210.45 40H1235.73H1210.45ZM1210.45 40L1218.53 59.865L1210.45 40ZM1261.01 40L1275.1 59.865L1261.01 40ZM1261.01 40H1235.73H1261.01ZM1261.01 40L1252.93 59.865L1261.01 40ZM1275.1 59.865L1235.73 102.123L1275.1 59.865ZM1275.1 59.865H1252.93H1275.1ZM1235.73 102.123L1196 59.865L1235.73 102.123ZM1235.73 102.123L1218.53 59.865L1235.73 102.123ZM1235.73 102.123L1252.93 59.865L1235.73 102.123ZM1196 59.865H1218.53H1196ZM1235.73 40L1218.53 59.865L1235.73 40ZM1235.73 40L1252.93 59.865L1235.73 40Z" stroke="white" stroke-opacity="0.5" stroke-width="3.61182" stroke-linecap="round" stroke-linejoin="round"/>
<path d="M1119.64 222.566V256.43M1119.64 222.566C1112.33 229.549 1105.71 241.593 1119.64 252.241C1126.31 248.401 1128.4 240.197 1126.31 233.738C1124.61 228.495 1121.25 227.629 1119.64 222.566Z" stroke="#F8F8F8" stroke-opacity="0.5" stroke-width="2.80952" stroke-linecap="round" stroke-linejoin="round"/>
<path d="M1119.5 267.596C1135.02 267.596 1147.6 255.017 1147.6 239.5C1147.6 223.984 1135.02 211.405 1119.5 211.405C1103.98 211.405 1091.4 223.984 1091.4 239.5C1091.4 255.017 1103.98 267.596 1119.5 267.596Z" stroke="#F8F8F8" stroke-opacity="0.5" stroke-width="2.80952"/>
<path d="M169.5 110.22H167.52V106.026H169.5V110.22ZM169.5 104.838H167.52V100.698H166.26V111.426H170.724V100.698H169.5V104.838ZM174.738 110.22H172.83V106.026H174.738V110.22ZM174.738 104.838H172.83V100.698H171.588V111.426H175.98V100.698H174.738V104.838ZM180.966 105.486H178.806V99.186H177.348V115.332H178.806V106.728H180.966V105.486ZM193.907 104.118H184.331V109.14H195.725V107.934H185.789V105.306H195.347V100.428H184.295V101.616H193.907V104.118ZM182.495 112.074V113.298H197.165V112.074H182.495ZM208.017 105.792H205.227C205.767 104.352 206.001 102.822 206.001 101.238H199.773V102.444H204.543C204.273 105.828 202.545 108.726 199.089 110.796L199.953 111.858C202.185 110.526 203.733 108.852 204.705 106.98H208.017V114.522H209.421V99.618H208.017V105.792ZM211.383 99.186V115.332H212.787V99.186H211.383ZM221.62 105.054L221.836 106.314L231.592 105.792C231.484 106.908 231.322 108.168 231.016 109.608L232.474 109.788C233.158 106.476 233.158 104.262 233.158 102.282V100.752H222.052V101.958H231.7V102.282C231.7 103.02 231.7 103.794 231.664 104.64L221.62 105.054ZM227.47 111.93V107.736H225.994V111.93H220.306V113.136H234.904V111.93H227.47ZM249.806 106.926H240.176V101.886H249.644V100.662H238.718V108.132H249.806V106.926ZM236.846 111.93V113.154H251.498V111.93H236.846ZM271.329 99.204H269.853V107.574H271.329V99.204ZM267.981 106.098C265.587 105.396 263.913 103.542 263.913 101.472V101.292H267.567V100.104H258.711V101.292H262.401V101.472C262.401 103.668 260.745 105.648 258.315 106.422L259.017 107.592C260.979 106.926 262.491 105.522 263.175 103.74C263.913 105.396 265.407 106.674 267.297 107.25L267.981 106.098ZM262.383 113.982V112.218H271.347V108.348H260.889V109.5H269.889V111.12H260.925V115.152H271.887V113.982H262.383ZM279.895 100.374C277.393 100.374 275.575 101.904 275.575 104.172C275.575 106.422 277.393 107.97 279.895 107.97C282.415 107.97 284.215 106.422 284.215 104.172C284.215 101.904 282.415 100.374 279.895 100.374ZM279.895 101.634C281.569 101.634 282.775 102.66 282.775 104.172C282.775 105.666 281.569 106.71 279.895 106.71C278.239 106.71 277.015 105.666 277.015 104.172C277.015 102.66 278.239 101.634 279.895 101.634ZM286.339 99.186V115.368H287.815V99.186H286.339ZM274.945 111.822C277.861 111.822 281.767 111.786 285.403 111.12L285.277 110.022C281.749 110.562 277.699 110.58 274.765 110.58L274.945 111.822ZM291.216 107.034V108.222H305.796V107.034H291.216ZM298.506 109.572C295.068 109.572 292.98 110.598 292.98 112.452C292.98 114.288 295.068 115.332 298.506 115.332C301.962 115.332 304.032 114.288 304.032 112.452C304.032 110.598 301.962 109.572 298.506 109.572ZM298.506 110.706C301.044 110.706 302.538 111.354 302.538 112.452C302.538 113.55 301.044 114.18 298.506 114.18C295.968 114.18 294.474 113.55 294.474 112.452C294.474 111.354 295.968 110.706 298.506 110.706ZM298.506 99.6C295.032 99.6 292.836 100.734 292.836 102.678C292.836 104.604 295.032 105.738 298.506 105.738C301.998 105.738 304.176 104.604 304.176 102.678C304.176 100.734 301.998 99.6 298.506 99.6ZM298.506 100.752C301.062 100.752 302.664 101.472 302.664 102.678C302.664 103.866 301.062 104.586 298.506 104.586C295.95 104.586 294.348 103.866 294.348 102.678C294.348 101.472 295.95 100.752 298.506 100.752ZM317.116 105.486C315.01 105.918 313.174 106.026 309.988 106.026V101.436H315.622V100.248H308.512V107.25H309.772C313.156 107.25 315.064 107.142 317.278 106.674L317.116 105.486ZM318.844 113.856H311.59V111.84H318.844V113.856ZM318.844 110.67H311.59V108.654H310.132V115.062H320.302V108.654H318.844V110.67ZM322.696 102.966H320.302V99.168H318.826V107.79H320.302V104.19H322.696V102.966ZM333.743 110.508C332.285 110.508 331.223 109.464 331.223 108.024C331.223 106.566 332.285 105.522 333.743 105.522C335.219 105.522 336.281 106.566 336.281 108.024C336.281 109.464 335.219 110.508 333.743 110.508ZM333.743 104.298C331.475 104.298 329.837 105.846 329.837 108.024C329.837 110.22 331.475 111.732 333.743 111.732C336.047 111.732 337.685 110.22 337.685 108.024C337.685 105.846 336.047 104.298 333.743 104.298ZM334.463 99.384H332.987V101.778H328.919V102.966H338.441V101.778H334.463V99.384ZM344.093 105.828H341.447V99.204H339.971V115.332H341.447V107.07H344.093V105.828ZM356.961 102.408C356.961 104.352 356.961 106.62 356.349 109.716L357.825 109.878C358.437 106.62 358.437 104.406 358.437 102.408V100.806H347.115V102.012H356.961V102.408ZM352.731 111.858V106.08H351.255V111.858H345.585V113.064H360.183V111.858H352.731ZM375.374 99.204H373.898V108.168H375.374V99.204ZM371.882 106.368C369.506 105.594 367.814 103.596 367.814 101.364V99.78H366.338V101.364C366.338 103.686 364.664 105.828 362.216 106.674L362.972 107.844C364.898 107.16 366.392 105.684 367.094 103.83C367.832 105.558 369.308 106.89 371.18 107.538L371.882 106.368ZM368.372 110.328H371.792V113.928H368.372V110.328ZM373.25 113.928V110.328H375.446V109.14H364.682V110.328H366.914V113.928H364.538V115.116H375.644V113.928H373.25ZM380.844 101.958H386.874V100.734H379.368V111.336H380.646C383.688 111.336 385.812 111.228 388.278 110.76L388.116 109.536C385.776 109.95 383.706 110.076 380.844 110.076V101.958ZM393.768 105.558H391.104V99.186H389.628V115.368H391.104V106.782H393.768V105.558ZM401.903 106.962H397.439V101.778H401.903V106.962ZM407.051 103.236V105.486H403.343V103.236H407.051ZM403.343 106.692H407.051V110.976H408.545V99.204H407.051V102.03H403.343V100.608H395.981V108.132H403.343V106.692ZM399.635 113.766V109.932H398.159V114.972H408.923V113.766H399.635Z" fill="#F8F8F8"/>
</svg>
